<?xml version="1.0" encoding="utf-8"?>
<!-- Generator: Adobe Illustrator 22.0.1, SVG Export Plug-In . SVG Version: 6.00 Build 0)  -->
<svg version="1.1" id="Layer_1" xmlns="http://www.w3.org/2000/svg" xmlns:xlink="http://www.w3.org/1999/xlink" x="0px" y="0px"
	 viewBox="0 0 1112.5 752.9" style="enable-background:new 0 0 1112.5 752.9;" xml:space="preserve">
<style type="text/css">
	.st0{fill:#EBF3FA;}
	.st1{opacity:0.2;enable-background:new    ;}
	.st2{fill:#80B4FF;}
	.st3{opacity:0.4;enable-background:new    ;}
	.st4{fill:#AFCDFB;}
	.st5{fill:#BFE2A8;}
	.st6{opacity:0.8;enable-background:new    ;}
	.st7{fill:#F8FCFF;}
	.st8{fill:#DAED8E;}
	.st9{fill:#A36F4B;}
	.st10{fill:#D8A987;}
	.st11{fill:#509B67;}
	.st12{fill:#82B378;}
	.st13{fill:#FFFFFF;}
	.st14{fill:#F99746;}
	.st15{fill:#EDC5A2;}
	.st16{fill:#F9DDBF;}
	.st17{fill:#ECEEF0;}
	.st18{fill:#8E99A8;}
	.st19{fill:#B6BCC7;}
	.st20{fill:#BAE0B2;}
	.st21{fill:#CBE8C6;}
	.st22{fill:#AB7D4B;}
	.st23{fill:#CFB598;}
	.st24{fill:#3FA82A;}
	.st25{fill:#6DBD5D;}
	.st26{fill:#CAAD8E;}
	.st27{fill:#DFCDBB;}
	.st28{fill:#ECE2D7;}
	.st29{enable-background:new    ;}
	.st30{fill:#323232;}
</style>
<g id="_404-element" transform="translate(-403.737 -226.08)">
	<g id="Group_230">
		<g id="Group_173" transform="translate(1257.297 664.907)">
			<g id="Path_139">
				<path class="st0" d="M-112.8-54c-2.2,14.2-14.4,24.6-28.8,24.6l-82.5,0l-72.3,0h-2.2l-15.5,0h-2l-14.8,0h-2.5l-20.6,0h-3.6
					l-16.8,0h-2.5h-2.1l-28.9,0h-5.1l-22.3,0h-1.3h-3.5l-34.5,0c-11.1,0-21.3-6.1-26.5-15.9c-2.2-4.2-4.6-9.1-7-14.5
					c-4.2-9.7-7.4-19.8-9.6-30.1c-2-9.3-2.9-18.7-2.8-28.2c0-1.8,0.1-3.5,0.2-5.3c0.1-1.5,0.2-3.1,0.4-4.6
					c0.6-5.1,1.5-10.1,2.9-15.1c1.7-6.3,4.1-12.5,7-18.3c3.9-7.7,8.7-14.9,14.3-21.4c3.4-3.9,7-7.7,10.8-11.2
					c71.3-65.6,140.5-38,150.4-38c47.6,0,36.1-30.1,88.9-34.7c111.6-9.7,95,93.1,95,93.1s-1.6,5.7-2.2,7.8c-0.7,2.8-1.2,5.5-1.6,8
					c0,0.2-0.1,0.4-0.1,0.6c-0.1,0.7-0.2,1.5-0.3,2.2c-0.6,4.5-0.6,9.1,0,13.6c0.8,6.7,3.3,13.2,7.2,18.7c2.4,3.4,5.1,6.6,8.1,9.5
					c0.8,0.8,1.7,1.7,2.5,2.5c1.1,1.1,2.2,2.1,3.3,3.1c1.5,1.4,2.9,2.8,4.4,4.2c0.3,0.3,0.6,0.6,0.9,0.9c0.5,0.5,1,1.1,1.6,1.6
					c2.2,2.2,4.2,4.6,6,7.1c0.4,0.5,0.8,1.1,1.2,1.7c0.4,0.7,0.9,1.3,1.3,2c1.4,2.3,2.5,4.7,3.5,7.1
					C-111.9-75.6-110.8-66.3-112.8-54z"/>
			</g>
			<g id="Path_140" class="st1">
				<path class="st2" d="M-313.4-91.6l-29.9,17.8l-122.9-18.4l-54.2-25.9c0-1.8,0.1-3.5,0.2-5.3c0.1-1.5,0.2-3.1,0.4-4.6
					c0.6-5.1,1.5-10.1,2.9-15.1c1.7-6.3,4.1-12.5,7-18.3c0,0,36.5-15.2,43.7-10.6s27.7,32.3,37,30.9s16.1-13.6,28.4,4
					s19.2,23.8,30.5,17.1s17.1-16.3,26.7-10.5S-313.4-91.6-313.4-91.6z"/>
			</g>
			<g id="Path_141" class="st3">
				<path class="st2" d="M-139.4-113.4c-27.1,9.1-113.2,37.6-133.5,39.3C-297-72-300.4-92-300.4-92s27-39,30.5-38.3
					s12.8,16,16.4,13.4s18.6-54.8,24.4-55.3c5.4-0.5,13.3,11.9,15.5,9.8c1.2-1.1,6.9-12.9,12.6-23c4.6-8.1,9.3-15.3,12.1-15.3
					s6.4,5.9,10.3,13.4l0,0c6.6,12.6,13.8,29.7,17.7,30.6c2,0.5,4.3-0.3,6.7-1.3c0,0.2-0.1,0.4-0.1,0.6c-0.1,0.7-0.2,1.5-0.3,2.2
					c-0.6,4.5-0.6,9.1,0,13.6c0.8,6.7,3.3,13.2,7.2,18.7C-145-119.5-142.3-116.3-139.4-113.4z"/>
			</g>
			<g id="Path_142" class="st3">
				<path class="st2" d="M-272.9-91.3c0,0,9.8-17.7,11.3-14.8s5.9,4.2,8,1.2s27-30.1,27.6-23.3s-9.7,23.4-5.5,24.2
					s26.7-21.8,34.7-17.2s16.9-3.9,25.4-3.6s8.2,19.8,8.2,19.8l-68.5,21l-32.3,1.5l-15.4-1.8L-272.9-91.3z"/>
			</g>
			<g id="Path_143">
				<path class="st2" d="M-133.6-107.8c0,0-111.4,23.2-123,22.6c0,0,8.2-8.2,18.5-8.5s14.7-10,26.7-11.2s19.2,1.4,24.1-1.1
					s10.6-15.1,22.3-14.7c10,0.3,13.8,0.1,17.6-2.1c3.1,4.3,6.7,8.3,10.6,12C-135.8-109.9-134.7-108.8-133.6-107.8z"/>
			</g>
			<g id="Path_144">
				<path class="st4" d="M-355.9-95.5l-164.1-28c0,0,0,0,0,0c0.1-1.5,0.2-3.1,0.4-4.6c0.6-5.1,1.5-10.1,2.9-15.1c0,0,17.5-3.5,26,0
					s7.7,9.2,14.4,9.9s12.7,0.1,17.7,4.1c5.8,4.5,12.9,6.7,20.2,6.4c7.6-0.5,24-2.3,30.4,2.9s19.1,16.3,30,16.1s17,2.7,18.8,5.3
					C-357.6-96-356-95.6-355.9-95.5z"/>
			</g>
			<g id="Path_145">
				<path class="st5" d="M-111.8-63.1c-0.1,3.1-0.4,6.1-0.9,9.1c-2.2,14.2-14.4,24.6-28.8,24.6l-82.5,0l-72.3,0h-2.2l-15.5,0h-2
					l-14.8,0h-2.5l-20.6,0h-3.6l-16.8,0h-2.5h-2.1l-28.9,0h-5.1l-23.6,0h-3.5l-34.5,0c-11.1,0-21.3-6.1-26.5-15.9
					c-7.6-14-13.2-29.1-16.6-44.7c-0.8-3.7-1.4-7.4-1.9-11.3c-0.8-6.4-1.1-12.9-0.8-19.4c0.1-2.5,0.3-4.9,0.6-7.4
					c16.2-0.2,58.8,1,109.6,17.2c64.9,20.6,124.8,33.9,168.4,23.1c36.3-9,81.4-20.1,108-19.9c1.5,1.4,2.9,2.8,4.4,4.2
					c0.3,0.3,0.6,0.6,0.9,0.9c0.5,0.5,1,1.1,1.6,1.6c2.2,2.2,4.2,4.6,6,7.1c0.4,0.5,0.8,1.1,1.2,1.7c0.4,0.7,0.9,1.3,1.3,2
					c1.4,2.3,2.5,4.7,3.5,7.1C-112.4-76.7-111.5-69.9-111.8-63.1z"/>
			</g>
			<g id="Path_146" class="st6">
				<path class="st7" d="M-326.3-194.4c3.6-5.8,10.2-9,17-8.2c0,0,17.4-15.4,36-2.1c0,0,19.7-3.3,34.3,2.9c9.7,4.1,13,8.4,13,8.4
					L-326.3-194.4z"/>
			</g>
			<g id="Path_147" class="st6">
				<path class="st7" d="M-393.1-172.9c0,0,4.2-6.5,14.4-5.8c0,0,14.7-10.8,30.5-1.4c0,0,16.7-2.3,29.1,2c8.3,2.9,11,5.9,11,5.9
					L-393.1-172.9z"/>
			</g>
			<g id="Path_148" class="st6">
				<path class="st7" d="M-445.8-202.4c0,0,3-6.5,10.3-5.8c0,0,10.5-10.8,21.7-1.4c0,0,11.9-2.3,20.7,2c5.9,2.9,7.8,5.9,7.8,5.9
					L-445.8-202.4z"/>
			</g>
			<g id="Path_149">
				<path class="st8" d="M-344.3-88.3c0,0-63.7-7.2-89.5-16.6s-27.7-6.6-21.4-1.7s42.2,16.7,27.3,18s-41.8-2.6-51.9,7.8
					s-26,19.7,0,21.7s102-12.3,102-12.3L-344.3-88.3z"/>
			</g>
			<g id="Path_150">
				<path class="st9" d="M-274.1-99.5c0,0,9.2,22.3,10.3,22.9s4.8,1.6,5.1,2.6s6.2,14.6,6.2,14.6l-22.6,4.4l-18-10.5L-274.1-99.5z"
					/>
			</g>
			<g id="Path_151">
				<path class="st10" d="M-141.5-29.4l-68.2,0l-14.4,0l-72.3,0h-2.2l-15.5,0h-2l-14.8,0h-2.5l-20.6,0h-3.6l-16.8,0h-2.5h-2.1
					l-28.9,0h-5.1l-23.6,0h-3.5l-34.5,0c-4.3,0-8.6-0.9-12.5-2.7c18.4-8.6,74.6-34.3,119.1-50.1c54.1-19.2,84.9-29.4,93.8-17.1
					s-23.6,38.3-5.8,39s60.6-4.8,76.7-1.7c16.1,3.1,14.4,9.2,18.8,9.6h0c4.5,0.3,38.7-2.1,42.8,4.1S-141.5-29.4-141.5-29.4z"/>
			</g>
			<g id="Path_152" class="st6">
				<path class="st7" d="M-178.7-187.3L-178.7-187.3c0,0-5.9-4.6-7.3-6s-3.1,2-4.1,3.4s-1.1-3-1.1-4.4s-9.8,8.9-9.8,8.9l0,0
					c4.6-8.1,9.3-15.3,12.1-15.3S-182.6-194.8-178.7-187.3z"/>
			</g>
			<g id="Path_153">
				<path class="st7" d="M-238.1-156.3c0,0,7-18.6,10.7-18s8.6,9,8.6,9s-5.1-4.3-6-2.9s-1.1,4.3-2.7,2.9s-2.7-1.6-3.5,0
					S-238.1-156.3-238.1-156.3z"/>
			</g>
			<g id="Path_154">
				<path class="st11" d="M-418.3-49.9c-4.5,5.5-31.8,7.2-31,11.1c0.7,3.2,13.3,5.4,14.1,9.2h-1.3h-3.5l-34.5,0
					c-11.1,0-21.3-6.1-26.5-15.9c-2.2-4.2-4.6-9.1-7-14.5c0,0,11.7-11.8,40.4-7.2s32.7-7.3,46.2-3.6s16.9,0.6,21.9,3.6
					s-18.8,8.2-21.4,10.6S-413.9-55.4-418.3-49.9z"/>
			</g>
			<g id="Group_177" transform="translate(-500.393 -83.471)">
				<g id="Path_155">
					<path class="st11" d="M7.5,17.5c0,0-5.9-14.1-0.3-17.1S6.5,12.5,8.9,18.1C10.1,20.9,7.5,17.5,7.5,17.5z"/>
				</g>
				<g id="Path_156">
					<path class="st11" d="M4.8,21c0,0-7.2-8.9-3.9-12.3s2.1,8.9,5,12.4C7.4,22.8,4.8,21,4.8,21z"/>
				</g>
				<g id="Path_157">
					<path class="st11" d="M10.1,20.2c0,0-0.7-14,5.1-14.9s-4.4,10.3-4.1,15.8C11.3,23.9,10.1,20.2,10.1,20.2z"/>
				</g>
			</g>
			<g id="Group_178" transform="translate(-474.964 -58.396)">
				<g id="Path_158">
					<path class="st12" d="M5,9.2c0,0-0.8-8.4,2.3-9.1S6.6,8.8,6.6,8.8L5,9.2z"/>
				</g>
				<g id="Path_159">
					<path class="st12" d="M7.3,9.4c0,0,3.3-6.6,6.2-5.7S8.8,9.9,8.8,9.9L7.3,9.4z"/>
				</g>
				<g id="Path_160">
					<path class="st12" d="M0.9,9.7c0,0,3.3-1.8,6.2-1.4c1.6,0.2,3.1,0.7,4.6,1.4c1.3,0.5,2.8,1.4,2.1,1.8s-6.4-0.3-7.8,0
						S-2.5,10.9,0.9,9.7z"/>
				</g>
			</g>
			<g id="Group_179" transform="translate(-414.697 -51.653)">
				<g id="Path_161">
					<path class="st12" d="M5.5,14.3c0,0,3.8-17.9,9.2-13.7S8.6,9,5.5,14.3z"/>
				</g>
				<g id="Path_162">
					<path class="st12" d="M3.9,15.3c0,0-1.8-13,1.8-13.6S4,11.4,3.9,15.3z"/>
				</g>
				<g id="Path_163">
					<path class="st12" d="M0.3,14.3C2,13.5,3.8,13,5.6,12.9c2.2,0.1,8.2,0.8,7.7,2s-6.6,0.2-8.1,0.4S-1.3,15.4,0.3,14.3z"/>
				</g>
			</g>
			<g id="Group_180" transform="translate(-207.208 -58.957)">
				<g id="Path_164">
					<path class="st11" d="M0,9c0,0-0.1-6.2,2.7-7.2S0.3,7.4,0,9z"/>
				</g>
				<g id="Path_165">
					<path class="st11" d="M2.3,8.1c0,0,2.2-7.8,6.2-8.1S3.3,6.2,2.3,8.1z"/>
				</g>
			</g>
			<g id="Group_182" transform="translate(-473.309 -81.842)">
				<g id="Path_166">
					<path class="st11" d="M1.4,4.3c1.1,0.5,5.2,0.1,5.4-0.2S4.2,0.6,3.1,0.2C1.9-0.3,0.6,0.3,0.2,1.4C-0.3,2.5,0.3,3.9,1.4,4.3
						L1.4,4.3z"/>
				</g>
				<g id="Path_167">
					<path class="st11" d="M11.7,6.3c-0.6,1.1-0.9,5.2-0.6,5.3s3.8-2,4.5-3c0.6-1.1,0.3-2.4-0.7-3.1C13.8,4.9,12.4,5.2,11.7,6.3z"/>
				</g>
				<g id="Path_168">
					<path class="st11" d="M6.2,14.3c1.2,0.4,5.2-0.3,5.3-0.6s-2.8-3.2-4-3.6c-1.2-0.4-2.4,0.3-2.8,1.5C4.4,12.7,5,13.9,6.2,14.3z"
						/>
				</g>
				<g id="Group_181" transform="translate(6.643 3.987)">
					<g id="Path_169">
						<path class="st11" d="M5.5,14.3c0-0.1-0.5-9.4-5.5-14.2L0.1,0c5.1,4.8,5.6,14.2,5.6,14.3L5.5,14.3z"/>
					</g>
				</g>
			</g>
			<g id="Group_184" transform="translate(-443.306 -89.611)">
				<g id="Path_170">
					<path class="st11" d="M14.7,4.4C13.6,5.2,9.2,5.7,9,5.3s2-4.2,3.1-4.9c1.1-0.7,2.6-0.4,3.3,0.7C16.1,2.2,15.8,3.7,14.7,4.4
						L14.7,4.4z"/>
				</g>
				<g id="Path_171">
					<path class="st11" d="M4.2,8.7c0.9,1,2.1,5.3,1.8,5.5S1.6,13,0.6,12c-0.9-1-0.9-2.5,0.1-3.4C1.8,7.7,3.3,7.8,4.2,8.7L4.2,8.7z"
						/>
				</g>
				<g id="Path_172">
					<path class="st11" d="M11.8,16.1c-1.2,0.7-5.6,0.8-5.8,0.5s2.3-4,3.4-4.7c1.2-0.6,2.6-0.2,3.3,1C13.3,14,12.9,15.4,11.8,16.1
						L11.8,16.1z"/>
				</g>
				<g id="Group_183" transform="translate(5.875 5.241)">
					<g id="Path_173">
						<path class="st11" d="M0.4,16.3c0-0.1-1.5-10,2.8-16.2L3.1,0c-4.4,6.2-2.9,16.2-2.8,16.3L0.4,16.3z"/>
					</g>
				</g>
			</g>
			<g id="Group_187" transform="translate(-462.205 -96.392)">
				<g id="Group_185" transform="translate(4.839 4.712)">
					<g id="Path_174">
						<path class="st11" d="M6.8,28.9l-0.3-0.1C5.7,19,3.6,9.3,0,0.1L0.3,0C3.9,9.3,6.1,19,6.8,28.9z"/>
					</g>
				</g>
				<g id="Group_186" transform="translate(0 0)">
					<g id="Path_175">
						<path class="st13" d="M1.4,3.2C2.5,4,3.8,4.6,5.2,4.8C5.1,3.4,4.7,2.1,4,0.9C3.3,0.2,2.2,0.2,1.5,0.8C0.9,1.4,0.8,2.5,1.4,3.2
							z"/>
					</g>
					<g id="Path_176">
						<path class="st13" d="M5.9,0.7C5.3,1.9,5,3.3,5,4.7c1.3-0.4,2.6-1,3.6-2C9.2,2,9,0.9,8.2,0.3C7.5-0.2,6.5,0,5.9,0.7z"/>
					</g>
					<g id="Path_177">
						<path class="st13" d="M9.3,4C8.6,3,7.2,2.7,6.1,3.4c-1,0.7-1.3,2.1-0.6,3.1c0.6,0.9,1.8,1.3,2.9,0.8C9.3,7.5,10.2,7,10.4,6
							C10.6,5.1,10.1,4.3,9.3,4z"/>
					</g>
					<g id="Path_178">
						<path class="st13" d="M7.2,8.1C6.8,6.8,6.1,5.6,5.1,4.5C4.4,5.7,3.9,7.1,3.8,8.4c0.1,0.9,0.9,1.7,1.8,1.6
							C6.5,10,7.3,9.1,7.2,8.1C7.2,8.2,7.2,8.1,7.2,8.1z"/>
					</g>
					<g id="Path_179">
						<path class="st13" d="M2.5,7.9C3.6,7,4.5,5.9,5,4.7C3.7,4.4,2.3,4.5,0.9,4.9C0.1,5.3-0.2,6.3,0.2,7.2C0.6,8,1.7,8.3,2.5,7.9z"
							/>
					</g>
					<g id="Path_180">
						<path class="st14" d="M4.5,4.6c0-0.3,0.3-0.5,0.6-0.5c0.3,0,0.5,0.3,0.5,0.6S5.3,5.3,4.9,5.2c0,0,0,0,0,0
							C4.6,5.2,4.4,4.9,4.5,4.6z"/>
					</g>
				</g>
				<g id="Path_181">
					<path class="st11" d="M11.5,16.6c-0.9,1.1-1.9,6-1.6,6.2s4.8-1.7,5.8-2.8c0.9-1.1,0.8-2.8-0.3-3.8
						C14.2,15.3,12.5,15.4,11.5,16.6C11.5,16.6,11.5,16.6,11.5,16.6L11.5,16.6z"/>
				</g>
			</g>
			<g id="Group_190" transform="translate(-425.361 -95.297)">
				<g id="Group_188" transform="translate(4.655 4.711)">
					<g id="Path_182">
						<path class="st11" d="M0,28.9l0.3-0.1C1,19,3.2,9.3,6.8,0.1L6.5,0C2.9,9.3,0.7,19,0,28.9z"/>
					</g>
				</g>
				<g id="Group_189" transform="translate(5.732 0)">
					<g id="Path_183">
						<path class="st13" d="M9.1,3.2C8,4,6.7,4.6,5.4,4.8c0.1-1.4,0.5-2.7,1.2-3.9C7.2,0.2,8.3,0.1,9,0.7C9.7,1.3,9.8,2.4,9.1,3.2
							C9.2,3.1,9.2,3.1,9.1,3.2z"/>
					</g>
					<g id="Path_184">
						<path class="st13" d="M4.6,0.7c0.6,1.3,0.9,2.6,0.9,4c-1.3-0.4-2.6-1-3.6-2C1.3,2,1.5,0.9,2.3,0.3C3-0.2,4.1,0,4.6,0.7z"/>
					</g>
					<g id="Path_185">
						<path class="st13" d="M1.3,4C2,3,3.4,2.7,4.4,3.4c1,0.7,1.3,2.1,0.6,3.1C4.4,7.5,3.2,7.8,2.2,7.3C1.3,7.6,0.3,7.1,0,6.2
							S0.3,4.3,1.2,4C1.2,4,1.2,4,1.3,4z"/>
					</g>
					<g id="Path_186">
						<path class="st13" d="M3.3,8.1c0.4-1.3,1.1-2.6,2.1-3.6c0.8,1.2,1.2,2.5,1.3,3.9c-0.1,0.9-1,1.6-1.9,1.5
							C3.9,9.8,3.3,9,3.3,8.1z"/>
					</g>
					<g id="Path_187">
						<path class="st13" d="M8,7.9C6.8,8.2,5.6,7.4,5.3,6.2C5,5,5.8,3.8,7,3.5c1.1-0.3,2.2,0.3,2.6,1.4c0.8,0.4,1.2,1.4,0.8,2.3
							S8.9,8.4,8,7.9C8.1,7.9,8,7.9,8,7.9z"/>
					</g>
					<g id="Path_188">
						<path class="st14" d="M6.1,4.6C6,4.3,5.7,4,5.4,4.1c-0.3,0-0.5,0.3-0.5,0.6s0.3,0.5,0.6,0.5c0,0,0,0,0,0
							C5.9,5.2,6.1,4.9,6.1,4.6z"/>
					</g>
				</g>
				<g id="Path_189">
					<path class="st11" d="M4.7,16.6c0.9,1.1,1.9,6,1.6,6.2S1.5,21.1,0.6,20c-0.9-1.2-0.7-2.8,0.4-3.8C2.2,15.3,3.8,15.5,4.7,16.6
						L4.7,16.6z"/>
				</g>
			</g>
			<g id="Group_192" transform="translate(-235.376 -72.449)">
				<g id="Path_190">
					<path class="st11" d="M1.8,5.7c1.5,0.7,7,0.3,7.1-0.1S5.7,0.9,4.2,0.3c-1.5-0.7-3.3,0-3.9,1.5C-0.4,3.3,0.3,5,1.8,5.7L1.8,5.7z
						"/>
				</g>
				<g id="Path_191">
					<path class="st11" d="M15.4,8.7c-0.9,1.4-1.4,6.8-1.1,7.1c0.4,0.3,5.1-2.4,6-3.8c0.9-1.4,0.5-3.2-0.9-4.1S16.3,7.3,15.4,8.7
						L15.4,8.7L15.4,8.7z"/>
				</g>
				<g id="Path_192">
					<path class="st11" d="M7.8,19.1c1.5,0.5,7-0.2,7.1-0.6s-3.6-4.4-5.1-5c-1.5-0.5-3.2,0.3-3.8,1.8C5.4,16.9,6.2,18.6,7.8,19.1
						L7.8,19.1z"/>
				</g>
				<g id="Group_191" transform="translate(8.734 5.471)">
					<g id="Path_193">
						<path class="st11" d="M6.8,19.2c0-0.1-0.2-12.5-6.8-19L0.2,0C6.8,6.6,7,19.1,7,19.2L6.8,19.2z"/>
					</g>
				</g>
			</g>
			<g id="Group_195" transform="translate(-219.91 -76.861)">
				<g id="Group_193" transform="translate(4.234 4.123)">
					<g id="Path_194">
						<path class="st11" d="M5.9,25.3l-0.3,0C5,16.7,3.1,8.2,0,0.1L0.3,0C3.4,8.1,5.3,16.6,5.9,25.3z"/>
					</g>
				</g>
				<g id="Group_194" transform="translate(0 0)">
					<g id="Path_195">
						<path class="st13" d="M1.2,2.8c0,1.1,0.9,2,2,2c1.1,0,2-0.9,2-2c0-1-0.7-1.8-1.7-1.9C2.9,0.2,2,0.1,1.4,0.7
							C0.7,1.2,0.7,2.1,1.2,2.8z"/>
					</g>
					<g id="Path_196">
						<path class="st13" d="M5.2,0.6C4.1,0.8,3.4,1.9,3.6,3C3.9,4,4.9,4.7,6,4.5c1-0.2,1.6-1.1,1.5-2.1c0.5-0.7,0.4-1.6-0.3-2.1
							C6.6-0.2,5.6-0.1,5.2,0.6z"/>
					</g>
					<g id="Path_197">
						<path class="st13" d="M8.1,3.5C7.5,2.6,6.3,2.4,5.4,3C4.4,3.6,4.2,4.8,4.8,5.7c0.5,0.8,1.6,1.1,2.5,0.7
							c0.8,0.2,1.6-0.3,1.8-1.1C9.4,4.5,8.9,3.7,8.1,3.5L8.1,3.5z"/>
					</g>
					<g id="Path_198">
						<path class="st13" d="M6.3,7.1C6.9,6.2,6.7,5,5.8,4.3C4.9,3.7,3.7,3.9,3,4.8C2.5,5.6,2.6,6.7,3.3,7.4c0.1,0.8,0.8,1.4,1.6,1.3
							C5.8,8.7,6.4,7.9,6.3,7.1z"/>
					</g>
					<g id="Path_199">
						<path class="st13" d="M2.2,6.9c1.1,0.2,2.1-0.4,2.4-1.5c0.2-1.1-0.4-2.1-1.5-2.4c-1-0.2-1.9,0.3-2.3,1.2c-0.7,0.4-1,1.3-0.6,2
							C0.6,7,1.5,7.3,2.2,6.9z"/>
					</g>
					<g id="Path_200">
						<path class="st14" d="M3.9,4c0-0.3,0.3-0.5,0.6-0.4c0.3,0,0.5,0.3,0.4,0.6S4.6,4.6,4.3,4.6C4.1,4.5,3.9,4.3,3.9,4
							C3.9,4,3.9,4,3.9,4z"/>
					</g>
				</g>
				<g id="Path_201">
					<path class="st11" d="M10.1,14.5c-0.8,1-1.7,5.2-1.4,5.4s4.2-1.5,5-2.5c0.8-1,0.7-2.5-0.3-3.3C12.4,13.4,10.9,13.5,10.1,14.5
						L10.1,14.5L10.1,14.5z"/>
				</g>
			</g>
			<g id="Path_202">
				<path class="st11" d="M-141.5-29.4l-68.2,0c0.3-3.2,6.5-4.9,5.9-8.1c-0.7-4.1-31.1-5.6-18.9-10.9c12-5.1,37.4-4.2,38.3-4.2h0
					c4.4,0.3,38.7-2.1,42.8,4.1S-141.5-29.4-141.5-29.4z"/>
			</g>
			<g id="Path_203">
				<path class="st8" d="M-111.8-63.1c-6.5-0.3-16.2-0.8-24.6-1.4c-14-0.9-7.9-5.2-1.4-11.4s-20.2-2.7-40.1-1.4s-49.6,0.7-39-7.9
					s87.7-18.4,87.7-18.4c0.3,0.3,0.6,0.6,0.9,0.9c0.5,0.5,1,1.1,1.6,1.6c2.2,2.2,4.2,4.6,6,7.1c0.4,0.5,0.8,1.1,1.2,1.7
					c0.4,0.7,0.9,1.3,1.3,2c1.4,2.3,2.5,4.7,3.5,7.1C-112.5-76.7-111.5-69.9-111.8-63.1z"/>
			</g>
			<g id="Path_204">
				<path class="st12" d="M-483.4-110.1c-6.5,0-17.1,0.3-13.8,2.4s6,5.1-5,5.5c-10.8,0.3-17,0.9-17.2,0.9
					c-0.8-6.4-1.1-12.9-0.8-19.4c0,0,10.1-2.9,16.3,0c6.2,2.9,10.6,0.6,15.4,3.6s14.9,3.4,16.9,5.1
					C-469.5-110.3-476.9-110.1-483.4-110.1z"/>
			</g>
			<g id="Group_196" transform="translate(-251.946 -53.155)">
				<g id="Path_205">
					<path class="st15" d="M20.5,13.4L21,5.2c0,0-4.1-3.4-4.7-3.7S6.9,0,6.9,0l0.4,7.7l2.8,5.6L20.5,13.4z"/>
				</g>
				<g id="Path_206">
					<path class="st16" d="M0.4,13.1c0,0-0.6-5.9-0.3-6.6S6-0.2,6.9,0c2.4,0.7,4.7,1.6,6.9,2.8c0.9,0.7,3,6.3,2.9,6.9
						s-0.2,3.6-0.2,3.6L0.4,13.1z"/>
				</g>
			</g>
			<g id="Group_197" transform="translate(-260.453 -45.413)">
				<g id="Path_207">
					<path class="st15" d="M15.3,7.6l0.1-3.5c0-0.5-0.2-1.1-0.7-1.4c-0.9-0.7-1.9-1.4-2.9-2C11.6,0.6,8.9,0.2,6.9,0
						C6-0.1,5.2,0.6,5,1.5c0,0.1,0,0.2,0,0.4L5.3,5c0,0.2,0.1,0.5,0.2,0.7l1.5,2.8C7.4,9.1,8,9.4,8.6,9.4l5-0.1
						C14.6,9.2,15.3,8.5,15.3,7.6z"/>
				</g>
				<g id="Path_208">
					<path class="st16" d="M2,9.6C1.1,9.6,0.3,9,0.2,8.1C0.1,7,0,5.9,0,4.8c0.2-0.5,5.6-4.8,6.3-4.7C7.6,0.4,8.8,0.9,10,1.6
						c0.7,0.5,2.4,4.6,2.4,5l0,1c0,0.9-0.8,1.7-1.7,1.7L2,9.6z"/>
				</g>
			</g>
			<g id="Group_198" transform="translate(-386.573 -65.351)">
				<g id="Path_209">
					<path class="st15" d="M0.1,6.4L0,3.4C0,3,0.2,2.5,0.6,2.3C1.4,1.6,2.2,1.1,3,0.6C3.2,0.5,5.5,0.2,7.1,0
						c0.8-0.1,1.5,0.5,1.6,1.3c0,0.1,0,0.2,0,0.3L8.5,4.3c0,0.2-0.1,0.4-0.2,0.6L7,7.2C6.8,7.7,6.3,8,5.7,7.9L1.5,7.8
						C0.7,7.8,0.1,7.2,0.1,6.4z"/>
				</g>
				<g id="Path_210">
					<path class="st16" d="M11.3,8.1c0.8,0,1.4-0.5,1.5-1.3C13,5.9,13,5,13,4.1c-0.2-0.4-4.7-4.1-5.3-4C6.6,0.4,5.5,0.8,4.5,1.4
						C3.7,2.7,3,4.1,2.5,5.6l0,0.9c0,0.8,0.6,1.4,1.4,1.4L11.3,8.1z"/>
				</g>
			</g>
			<g id="Group_199" transform="translate(-398.67 -60.248)">
				<g id="Path_211">
					<path class="st15" d="M0,3.5l0-1.6c0-0.3,0.1-0.5,0.3-0.6c0.4-0.3,0.9-0.6,1.3-0.9C1.8,0.3,3,0.1,3.9,0C4.3,0,4.7,0.3,4.8,0.7
						c0,0.1,0,0.1,0,0.2L4.6,2.3c0,0.1,0,0.2-0.1,0.3L3.8,3.9C3.7,4.2,3.4,4.3,3.1,4.3L0.8,4.3C0.4,4.2,0,3.9,0,3.5z"/>
				</g>
				<g id="Path_212">
					<path class="st16" d="M6.2,4.4c0.4,0,0.8-0.3,0.8-0.7c0.1-0.5,0.1-1,0.1-1.5C6.2,1.3,5.2,0.6,4.2,0C3.6,0.2,3,0.4,2.5,0.7
						C2,1.5,1.6,2.2,1.4,3l0,0.5c0,0.4,0.3,0.8,0.8,0.8L6.2,4.4z"/>
				</g>
			</g>
			<g id="Group_200" transform="translate(-278.304 -55.01)">
				<g id="Path_213">
					<path class="st15" d="M0,3.5l0-1.6c0-0.3,0.1-0.5,0.3-0.6c0.4-0.3,0.9-0.6,1.3-0.9C1.8,0.3,3,0.1,3.9,0C4.3,0,4.7,0.3,4.8,0.7
						c0,0.1,0,0.1,0,0.2L4.6,2.3c0,0.1,0,0.2-0.1,0.3L3.8,3.9C3.7,4.2,3.4,4.3,3.1,4.3L0.8,4.3C0.4,4.2,0,3.9,0,3.5z"/>
				</g>
				<g id="Path_214">
					<path class="st16" d="M6.2,4.4c0.4,0,0.8-0.3,0.8-0.7c0.1-0.5,0.1-1,0.1-1.5C6.2,1.3,5.2,0.6,4.2,0C3.6,0.2,3,0.4,2.5,0.8
						C2,1.5,1.6,2.2,1.4,3.1l0,0.5c0,0.4,0.3,0.8,0.8,0.8L6.2,4.4z"/>
				</g>
			</g>
			<g id="Group_201" transform="translate(-431.052 -38.03)">
				<g id="Path_215">
					<path class="st15" d="M0,3.5l0-1.6c0-0.3,0.1-0.5,0.3-0.6c0.4-0.3,0.9-0.6,1.3-0.9C1.8,0.3,3,0.1,3.9,0C4.3,0,4.7,0.3,4.8,0.7
						c0,0.1,0,0.1,0,0.2L4.6,2.3c0,0.1,0,0.2-0.1,0.3L3.8,3.9C3.7,4.2,3.4,4.3,3.1,4.3L0.8,4.3C0.4,4.2,0,3.9,0,3.5z"/>
				</g>
				<g id="Path_216">
					<path class="st16" d="M6.2,4.4c0.4,0,0.8-0.3,0.8-0.7c0.1-0.5,0.1-1,0.1-1.5C6.2,1.3,5.2,0.6,4.2,0C3.6,0.2,3,0.4,2.5,0.7
						C2,1.5,1.6,2.2,1.4,3l0,0.5c0,0.4,0.3,0.8,0.8,0.8L6.2,4.4z"/>
				</g>
			</g>
			<g id="Group_202" transform="translate(-393.904 -63.894)">
				<g id="Path_217">
					<path class="st15" d="M0,2.4l0-1.1C0,1.1,0.1,1,0.2,0.9c0.3-0.2,0.6-0.4,0.9-0.6c0.1,0,0.9-0.1,1.6-0.2C3,0,3.3,0.2,3.3,0.5
						c0,0,0,0.1,0,0.1l-0.1,1c0,0.1,0,0.1-0.1,0.2L2.7,2.7C2.6,2.9,2.4,3,2.2,3L0.6,3C0.3,3,0,2.7,0,2.4z"/>
				</g>
				<g id="Path_218">
					<path class="st16" d="M4.3,3.1c0.3,0,0.5-0.2,0.6-0.5c0.1-0.3,0.1-0.7,0.1-1.1C4.3,0.9,3.7,0.4,2.9,0C2.5,0.1,2.1,0.3,1.7,0.5
						C1.4,1,1.1,1.5,1,2.1l0,0.3C1,2.7,1.2,3,1.5,3L4.3,3.1z"/>
				</g>
			</g>
			<g id="Group_229" transform="translate(-853.56 -438.827)">
				<g id="Path_219">
					<path class="st17" d="M1109.8,581.4c-6.1,38.5-39.3,66.9-78.3,66.9l-224.7-0.1l-196.9-0.1H509.3l-56.1,0h-9.9l-45.7,0h-12.4
						l-78.8,0h-13.7l-60.9,0h-13l-93.9,0c-30.2,0-57.9-16.6-72.2-43.2c-6.1-11.4-12.7-24.7-19-39.6c-11.4-26.4-20.1-53.9-26.2-82
						c-5.4-25.2-7.9-50.9-7.5-76.7c0.1-4.8,0.3-9.6,0.6-14.4c0.3-4.2,0.7-8.4,1.1-12.6c1.5-13.8,4.1-27.5,7.8-41
						c4.7-17.2,11-34,19-49.9c10.5-20.9,23.6-40.5,38.8-58.3c9.1-10.7,18.9-20.9,29.4-30.4C291,21.1,479.3,96.2,506.3,96.2
						c129.7,0,98.4-81.9,242.1-94.4C1052.2-24.7,1007,255.2,1007,255.2s-4.5,15.4-5.9,21.1c-1.9,7.7-3.3,15-4.3,21.9
						c-0.1,0.5-0.2,1.1-0.2,1.6c-0.3,2-0.5,4-0.7,5.9c-1.5,12.3-1.5,24.8,0,37.1c2.3,18.4,9,35.9,19.6,51c6.5,9.3,13.9,17.9,22,25.9
						c2.2,2.3,4.5,4.5,6.8,6.7c3,2.9,6,5.7,8.9,8.5c4,3.8,8,7.6,11.9,11.5c0.9,0.8,1.7,1.7,2.5,2.5c1.4,1.4,2.8,2.9,4.3,4.4
						c5.9,6,11.3,12.5,16.3,19.2c1.1,1.5,2.1,3,3.2,4.5c1.2,1.8,2.4,3.7,3.5,5.5c3.7,6.2,6.9,12.7,9.5,19.4
						C1112.2,522.6,1115.2,547.9,1109.8,581.4z"/>
				</g>
				<g id="Path_220" class="st1">
					<path class="st18" d="M563.6,478.8l-81.3,48.3L147.6,477L0.1,406.3c0.1-4.8,0.3-9.6,0.6-14.4c0.3-4.2,0.7-8.4,1.1-12.6
						c1.5-13.8,4.1-27.5,7.8-41c4.7-17.2,11-34,19-49.9c0,0,99.4-41.3,119-28.9c19.6,12.4,75.5,87.9,100.7,84.2s43.8-36.9,77.4,10.9
						s52.2,64.9,83,46.6s46.6-44.4,72.7-28.6S563.6,478.8,563.6,478.8z"/>
				</g>
				<g id="Path_221" class="st3">
					<path class="st18" d="M1037.4,419.6c-73.8,24.8-308.2,102.4-363.5,107.1c-65.8,5.6-75.1-48.9-75.1-48.9s73.6-106.3,83-104.4
						s34.7,43.6,44.5,36.6s50.8-149.1,66.4-150.6c14.7-1.4,36.2,32.4,42.3,26.7c3.4-3.1,18.7-35,34.4-62.7
						c12.6-22.1,25.5-41.6,32.8-41.6c7.4,0,17.5,16,28.1,36.4l0,0c18,34.3,37.4,80.8,48.3,83.3c5.3,1.2,11.6-0.7,18.2-3.5
						c-0.1,0.5-0.2,1.1-0.2,1.6c-0.3,2-0.5,4-0.7,5.9c-1.5,12.3-1.5,24.8,0,37.1c2.3,18.4,9,35.9,19.6,51
						C1022,403,1029.3,411.7,1037.4,419.6z"/>
				</g>
				<g id="Path_222" class="st3">
					<path class="st18" d="M673.9,479.9c0,0,26.5-48.1,30.8-40.4c4.2,7.7,16.1,11.5,21.7,3.3s73.6-81.8,75.2-63.6
						c1.7,18.3-26.3,63.8-15.1,65.9c11.2,2.1,72.7-59.5,94.4-46.9c21.7,12.6,46.1-10.5,69.2-9.8s22.4,53.9,22.4,53.9l-186.7,57.2
						l-88.1,4.2l-41.9-4.9L673.9,479.9z"/>
				</g>
				<g id="Path_223">
					<path class="st18" d="M1053.2,434.9c0,0-303.4,63.2-335.1,61.5c0,0,22.4-22.3,50.4-23.2s40.1-27.3,72.7-30.5
						c32.6-3.1,52.2,3.9,65.7-3.1s28.9-41,60.6-40.1c27.2,0.8,37.6,0.2,47.9-5.8c8.3,12.1,18.4,22.5,28.8,32.6
						C1047.2,429.2,1050.2,432.1,1053.2,434.9z"/>
				</g>
				<g id="Path_224">
					<path class="st19" d="M447.6,468.2L0.7,391.9v0c0.3-4.2,0.7-8.4,1.1-12.6c1.5-13.8,4.1-27.5,7.8-41c0,0,47.7-9.6,70.7,0
						s21,25,39.2,27.1c18.2,2.1,34.7,0.4,48.3,11.2c13.7,10.9,34.2,18.7,55,17.4s65.2-6.2,82.7,7.8c17.4,14,51.8,44.5,81.7,44
						s46.4,7.5,51.3,14.4C443.2,466.9,447.4,468.1,447.6,468.2z"/>
				</g>
				<g id="Path_225">
					<path class="st20" d="M1112.4,556.5c-0.4,8.3-1.2,16.6-2.5,24.9c-6.1,38.5-39.3,66.9-78.3,66.9l-224.7-0.1l-196.9-0.1H509.3
						l-56.1,0h-9.9l-45.7,0h-12.4l-78.8,0h-13.7l-64.3,0h-9.5l-93.9,0c-30.2,0-57.9-16.6-72.2-43.2C37,575,18,532.3,7.6,483
						c-2.1-10-3.8-20.2-5.1-30.7c-2.2-17.6-2.9-35.3-2.2-52.9c0.3-6.7,0.8-13.4,1.6-20.1c44-0.6,160.2,2.8,298.6,46.8
						c176.8,56.2,339.8,92.3,458.7,62.9c98.9-24.4,221.6-54.7,294.1-54.1c4,3.8,8,7.6,11.9,11.5c0.9,0.8,1.7,1.7,2.5,2.5
						c1.4,1.4,2.8,2.9,4.3,4.4c5.9,6,11.3,12.5,16.3,19.2c1.1,1.5,2.1,3,3.2,4.5c1.2,1.8,2.4,3.7,3.5,5.5c3.7,6.2,6.9,12.7,9.5,19.4
						C1110.1,517.2,1113.2,534.9,1112.4,556.5z"/>
				</g>
				<g id="Path_226" class="st6">
					<path class="st7" d="M528.5,199.1c0,0,13.7-25.1,46.3-22.4c0,0,47.4-41.9,98-5.6c0,0,53.8-9,93.5,7.8
						c26.5,11.2,35.3,23,35.3,23L528.5,199.1z"/>
				</g>
				<g id="Path_227" class="st6">
					<path class="st7" d="M346.4,257.5c0,0,11.6-17.7,39.2-15.7c0,0,40.2-29.5,83-3.9c0,0,45.5-6.3,79.2,5.5
						c22.5,7.9,29.9,16.1,29.9,16.1L346.4,257.5z"/>
				</g>
				<g id="Path_228" class="st6">
					<path class="st7" d="M202.9,177.1c0,0,8.2-17.7,28-15.7c0,0,28.6-29.5,59.1-3.9c0,0,32.4-6.3,56.4,5.5
						c16,7.9,21.3,16.1,21.3,16.1L202.9,177.1z"/>
				</g>
				<g id="Path_229">
					<path class="st21" d="M479.3,488c0,0-173.5-19.7-243.7-45.2c-70.2-25.5-75.3-18-58.3-4.5s115,45.4,74.4,49
						c-40.6,3.6-113.7-7-141.3,21.2s-70.9,53.6,0,59s277.7-33.4,277.7-33.4L479.3,488z"/>
				</g>
				<g id="Path_230">
					<path class="st22" d="M670.6,457.4c0,0,25.2,60.6,28,62.5c2.8,1.9,13.1,4.2,13.8,7s16.8,39.9,16.8,39.9l-61.5,11.9L618.7,550
						L670.6,457.4z"/>
				</g>
				<g id="Path_231">
					<path class="st23" d="M1031.5,648.3l-185.6-0.1h-39.1l-196.9-0.1H509.3l-56.1,0h-9.9l-45.7,0h-12.4l-78.8,0h-13.7l-64.3,0h-9.5
						l-93.9,0c-11.8,0-23.4-2.5-34.2-7.5c50.2-23.4,203.1-93.4,324.4-136.4c147.3-52.2,231.2-80.2,255.4-46.6
						c24.2,33.6-64.3,104.4-15.9,106.3c48.5,1.9,165-13,208.8-4.6c43.7,8.4,39.2,25.1,51.2,26.1h0.1c12.1,0.9,105.3-5.6,116.5,11.2
						C1042.5,613.1,1031.5,648.3,1031.5,648.3z"/>
				</g>
				<g id="Path_232" class="st6">
					<path class="st7" d="M930.4,218.3L930.4,218.3c0,0-16.2-12.6-19.9-16.4c-3.7-3.8-8.4,5.3-11.2,9.3s-3.1-8.3-3.1-12
						c0-3.7-26.8,24.3-26.8,24.3l0,0c12.6-22.1,25.5-41.6,32.8-41.6C909.6,182,919.8,198,930.4,218.3z"/>
				</g>
				<g id="Path_233">
					<path class="st7" d="M768.7,302.9c0,0,19.1-50.6,29-49s23.5,24.5,23.5,24.5s-13.8-11.8-16.4-7.9s-3,11.8-7.5,7.9
						s-7.2-4.5-9.6,0C785.5,282.8,768.7,302.9,768.7,302.9z"/>
				</g>
				<g id="Path_234">
					<path class="st24" d="M277.7,592.6c-12.1,14.9-86.7,19.6-84.4,30.3c1.9,8.6,36.3,14.8,38.5,25.1h-13l-93.9,0
						c-30.2,0-57.9-16.6-72.2-43.2c-6.1-11.4-12.7-24.7-19-39.6c0,0,31.8-32.1,110.1-19.5c78.3,12.5,89.2-20,125.8-9.8
						c36.7,10.1,46.1,1.5,59.7,9.8s-51.3,22.3-58.3,28.9C264.2,580.9,289.8,577.7,277.7,592.6z"/>
				</g>
				<g id="Group_203" transform="translate(54.241 501.073)">
					<g id="Path_235">
						<path class="st24" d="M20.4,47.8c0,0-16-38.3-0.9-46.7S17.8,34,24.3,49.3C27.5,56.9,20.4,47.8,20.4,47.8z"/>
					</g>
					<g id="Path_236">
						<path class="st24" d="M13,57.2c0,0-19.7-24.2-10.5-33.6c9.2-9.4,5.7,24.2,13.7,33.9C20.1,62.2,13,57.2,13,57.2z"/>
					</g>
					<g id="Path_237">
						<path class="st24" d="M27.5,54.9c0,0-1.9-38,14-40.6c15.9-2.6-11.9,27.9-11,43.1C30.8,65,27.5,54.9,27.5,54.9z"/>
					</g>
				</g>
				<g id="Group_204" transform="translate(123.517 569.379)">
					<g id="Path_238">
						<path class="st25" d="M13.6,25c0,0-2.2-23,6.2-24.9C28-1.9,17.9,24,17.9,24L13.6,25z"/>
					</g>
					<g id="Path_239">
						<path class="st25" d="M19.8,25.6c0,0,8.9-18,16.9-15.5S23.9,26.9,23.9,26.9L19.8,25.6z"/>
					</g>
					<g id="Path_240">
						<path class="st25" d="M2.5,26.3c0,0,9-5,16.8-3.7c7.8,1.2,9,2.5,12.4,3.7c3.4,1.2,7.6,3.7,5.7,4.8c-1.9,1.1-17.4-0.9-21.1,0
							C12.6,32-6.9,29.7,2.5,26.3z"/>
					</g>
				</g>
				<g id="Group_205" transform="translate(287.63 587.748)">
					<g id="Path_241">
						<path class="st25" d="M15,39c0,0,10.5-48.7,25-37.3S23.6,24.4,15,39z"/>
					</g>
					<g id="Path_242">
						<path class="st25" d="M10.8,41.7c0,0-4.8-35.4,4.9-37.1C25.3,2.8,10.9,31,10.8,41.7z"/>
					</g>
					<g id="Path_243">
						<path class="st25" d="M0.9,38.9c0,0,8.4-4.1,14.4-3.7s22.4,2.3,20.9,5.5c-1.5,3.2-17.9,0.4-22,1C10.1,42.3-3.6,41.9,0.9,38.9z
							"/>
					</g>
				</g>
				<g id="Group_206" transform="translate(852.673 567.859)">
					<g id="Path_244">
						<path class="st24" d="M0,24.4c0,0-0.3-16.8,7.5-19.7C15.2,1.7,0.8,20.1,0,24.4z"/>
					</g>
					<g id="Path_245">
						<path class="st24" d="M6.2,22c0,0,5.9-21.2,16.8-22C34-0.8,8.9,16.9,6.2,22z"/>
					</g>
				</g>
				<g id="Group_208" transform="translate(127.999 505.523)">
					<g id="Path_246">
						<path class="st24" d="M3.8,11.8C7,13,18.1,12,18.5,11.1s-7-9.4-10.1-10.7C5.3-0.8,1.7,0.7,0.5,3.8C-0.8,6.9,0.7,10.5,3.8,11.8
							L3.8,11.8L3.8,11.8z"/>
					</g>
					<g id="Path_247">
						<path class="st24" d="M32,17.1c-1.8,2.9-2.5,14.1-1.7,14.6c0.8,0.5,10.4-5.3,12.1-8.2c1.8-2.9,0.9-6.6-1.9-8.4
							s-6.6-0.9-8.4,1.9C32.1,17,32,17.1,32,17.1L32,17.1z"/>
					</g>
					<g id="Path_248">
						<path class="st24" d="M17,39c3.2,1,14.3-0.9,14.6-1.8c0.3-0.9-7.7-8.9-10.9-9.9c-3.2-1-6.7,0.7-7.7,3.9
							C11.9,34.5,13.7,37.9,17,39C16.9,39,16.9,39,17,39L17,39z"/>
					</g>
					<g id="Group_207" transform="translate(18.123 10.867)">
						<g id="Path_249">
							<path class="st24" d="M15.1,39c0-0.3-1.2-25.6-15.1-38.7L0.3,0c14,13.2,15.2,38.7,15.2,38.9L15.1,39z"/>
						</g>
					</g>
				</g>
				<g id="Group_210" transform="translate(209.718 484.364)">
					<g id="Path_250">
						<path class="st24" d="M40.1,12.1c-3,2-15.1,3.4-15.7,2.5c-0.6-0.9,5.3-11.4,8.4-13.5c3-2,7.1-1.2,9.2,1.9
							C44,6,43.1,10.1,40.1,12.1L40.1,12.1z"/>
					</g>
					<g id="Path_251">
						<path class="st24" d="M11.4,23.8c2.5,2.7,5.7,14.3,5,15c-0.8,0.7-12.1-3.4-14.6-6.1c-2.5-2.7-2.3-6.9,0.4-9.3
							C4.8,21,9,21.2,11.4,23.8L11.4,23.8L11.4,23.8z"/>
					</g>
					<g id="Path_252">
						<path class="st24" d="M32.1,43.7c-3.2,1.8-15.3,2.2-15.8,1.3c-0.5-0.9,6.2-11,9.4-12.8c3.2-1.8,7.2-0.6,9,2.5
							C36.4,38,35.2,41.9,32.1,43.7z"/>
					</g>
					<g id="Group_209" transform="translate(16.015 14.262)">
						<g id="Path_253">
							<path class="st24" d="M1.2,44.4c0-0.3-4.2-27.3,7.7-44.2L8.5,0C-3.5,17,0.7,44.2,0.7,44.5L1.2,44.4z"/>
						</g>
					</g>
				</g>
				<g id="Group_213" transform="translate(158.27 465.904)">
					<g id="Group_211" transform="translate(13.151 12.81)">
						<g id="Path_254">
							<path class="st24" d="M18.4,78.8l-0.9-0.2C14,33.3,0.2,0.8,0,0.4L0.8,0C1,0.5,15,33.2,18.4,78.8z"/>
						</g>
					</g>
					<g id="Group_212">
						<g id="Path_255">
							<path class="st13" d="M3.8,8.6c1.7,2,9.7,5,10.3,4.6c0.5-0.5-1.5-8.8-3.2-10.7C9.1,0.5,6.2,0.3,4.2,2S2.1,6.7,3.8,8.6
								L3.8,8.6L3.8,8.6z"/>
						</g>
						<g id="Path_256">
							<path class="st13" d="M16,1.9c-1.5,2.1-2.9,10.5-2.3,11s8.3-3.3,9.8-5.4c1.5-2.1,1.1-5-1-6.5S17.6-0.2,16,1.9L16,1.9L16,1.9z
								"/>
						</g>
						<g id="Path_257">
							<path class="st13" d="M25.2,10.9c-2.5-0.7-10.9,1.1-11,1.8c-0.2,0.7,6.1,6.5,8.6,7.2c2.5,0.7,5.1-0.8,5.7-3.3
								C29.2,14.1,27.7,11.6,25.2,10.9z"/>
						</g>
						<g id="Path_258">
							<path class="st13" d="M19.6,22.1c-0.2-2.6-4.9-9.8-5.6-9.7c-0.7,0.1-3.9,8-3.7,10.6c0.2,2.6,2.5,4.5,5.1,4.2
								S19.8,24.8,19.6,22.1C19.6,22.2,19.6,22.1,19.6,22.1L19.6,22.1z"/>
						</g>
						<g id="Path_259">
							<path class="st13" d="M6.8,21.6c2.3-1.2,7.2-8.2,6.9-8.9c-0.4-0.7-8.9-0.6-11.2,0.6c-2.3,1.2-3.1,4-2,6.3
								C1.7,21.9,4.6,22.8,6.8,21.6L6.8,21.6L6.8,21.6z"/>
						</g>
						<g id="Path_260">
							<path class="st26" d="M12.2,12.4c0.1-0.8,0.9-1.4,1.8-1.3c0.8,0.1,1.4,0.9,1.3,1.8s-0.9,1.4-1.8,1.3c0,0,0,0,0,0
								C12.6,14.1,12.1,13.3,12.2,12.4C12.2,12.5,12.2,12.4,12.2,12.4z"/>
						</g>
					</g>
					<g id="Path_261">
						<path class="st24" d="M31.3,45.3c-2.5,3.1-5.3,16.2-4.4,16.9s13.2-4.6,15.7-7.7c2.5-3.2,1.9-7.8-1.2-10.2
							C38.3,41.8,33.9,42.3,31.3,45.3L31.3,45.3z"/>
					</g>
				</g>
				<g id="Group_216" transform="translate(258.57 468.888)">
					<g id="Group_214" transform="translate(12.683 12.832)">
						<g id="Path_262">
							<path class="st24" d="M0,78.8l0.9-0.2C4.4,33.3,18.2,0.8,18.4,0.4L17.6,0C17.5,0.4,3.5,33.2,0,78.8z"/>
						</g>
					</g>
					<g id="Group_215" transform="translate(15.609)">
						<g id="Path_263">
							<path class="st13" d="M24.9,8.6c-1.7,2-9.7,5-10.3,4.6c-0.5-0.5,1.5-8.8,3.2-10.7c1.7-1.9,4.7-2.1,6.6-0.4
								C26.4,3.7,26.6,6.7,24.9,8.6L24.9,8.6z"/>
						</g>
						<g id="Path_264">
							<path class="st13" d="M12.7,1.9c1.5,2.1,2.9,10.5,2.3,11S6.7,9.5,5.2,7.4c-1.5-2.1-1.1-5,1-6.5S11.1-0.2,12.7,1.9L12.7,1.9
								L12.7,1.9z"/>
						</g>
						<g id="Path_265">
							<path class="st13" d="M3.5,10.9c2.5-0.7,10.9,1.1,11,1.8c0.2,0.7-6.1,6.5-8.6,7.2c-2.5,0.7-5.1-0.8-5.7-3.3
								C-0.5,14.1,1,11.5,3.5,10.9L3.5,10.9z"/>
						</g>
						<g id="Path_266">
							<path class="st13" d="M9.1,22.1c0.2-2.6,4.9-9.8,5.6-9.7s3.9,8,3.7,10.6c-0.2,2.6-2.5,4.5-5.1,4.2
								C10.8,26.9,8.9,24.6,9.1,22.1z"/>
						</g>
						<g id="Path_267">
							<path class="st13" d="M21.9,21.5c-2.3-1.2-7.2-8.2-6.9-8.9c0.4-0.7,8.9-0.6,11.2,0.6c2.3,1.2,3.1,4,2,6.3
								S24.1,22.7,21.9,21.5L21.9,21.5z"/>
						</g>
						<g id="Path_268">
							<path class="st26" d="M16.5,12.4c-0.1-0.8-0.9-1.4-1.8-1.3c-0.8,0.1-1.4,0.9-1.3,1.8s0.9,1.4,1.8,1.3c0,0,0,0,0,0
								C16.1,14,16.6,13.3,16.5,12.4C16.5,12.4,16.5,12.4,16.5,12.4z"/>
						</g>
					</g>
					<g id="Path_269">
						<path class="st24" d="M13,45.3c2.5,3.1,5.3,16.2,4.4,16.9S4.2,57.6,1.6,54.5c-2.5-3.2-1.9-7.8,1.2-10.2
							C6,41.8,10.4,42.3,13,45.3L13,45.3z"/>
					</g>
				</g>
				<g id="Group_218" transform="translate(775.921 531.084)">
					<g id="Path_270">
						<path class="st24" d="M4.9,15.5c4.1,1.8,18.9,0.9,19.4-0.3S15.5,2.5,11.4,0.7C7.3-1.1,2.5,0.7,0.7,4.8
							C-1.1,8.9,0.8,13.7,4.9,15.5L4.9,15.5L4.9,15.5z"/>
					</g>
					<g id="Path_271">
						<path class="st24" d="M42,23.8c-2.5,3.7-3.9,18.5-2.9,19.2s14-6.6,16.4-10.4c2.5-3.7,1.5-8.7-2.3-11.2S44.5,19.9,42,23.8
							C42,23.7,42,23.7,42,23.8z"/>
					</g>
					<g id="Path_272">
						<path class="st24" d="M21.2,52.1c4.2,1.5,18.9-0.5,19.4-1.8s-9.8-12-14-13.5c-4.3-1.4-8.8,1-10.2,5.2
							C15,46.2,17.2,50.6,21.2,52.1L21.2,52.1z"/>
					</g>
					<g id="Group_217" transform="translate(23.851 14.939)">
						<g id="Path_273">
							<path class="st24" d="M18.5,52.2c0-0.4-0.6-34-18.5-51.8L0.4,0C18.4,18.1,19,51.9,19,52.2H18.5z"/>
						</g>
					</g>
				</g>
				<g id="Group_221" transform="translate(818.12 519.085)">
					<g id="Group_219" transform="translate(11.519 11.243)">
						<g id="Path_274">
							<path class="st24" d="M16.1,68.9l-0.8-0.1C12.3,29.2,0.2,0.7,0,0.3L0.7,0C0.9,0.4,13.1,29,16.1,68.9z"/>
						</g>
					</g>
					<g id="Group_220">
						<g id="Path_275">
							<path class="st13" d="M3.3,7.5c1.5,1.7,8.5,4.4,9,4c0.5-0.4-1.4-7.7-2.9-9.4C7.9,0.4,5.3,0.3,3.6,1.8
								C1.9,3.3,1.8,5.8,3.3,7.5z"/>
						</g>
						<g id="Path_276">
							<path class="st13" d="M14,1.6c-1.4,1.8-2.6,9.2-2.1,9.6s7.3-2.9,8.6-4.7c1.3-1.8,1-4.3-0.8-5.7c0,0,0,0,0,0
								C17.9-0.5,15.4-0.2,14,1.6z"/>
						</g>
						<g id="Path_277">
							<path class="st13" d="M22.1,9.5c-2.2-0.6-9.5,1-9.7,1.6s5.3,5.7,7.5,6.3c2.2,0.6,4.4-0.7,5-2.9S24.3,10.1,22.1,9.5
								C22.1,9.5,22.1,9.5,22.1,9.5L22.1,9.5z"/>
						</g>
						<g id="Path_278">
							<path class="st13" d="M17.1,19.3c-0.2-2.3-4.3-8.6-4.9-8.5s-3.4,7-3.2,9.3c0.2,2.2,2.2,3.9,4.4,3.7c0,0,0,0,0,0
								C15.7,23.6,17.3,21.6,17.1,19.3z"/>
						</g>
						<g id="Path_279">
							<path class="st13" d="M6,18.9c2-1.1,6.3-7.2,6-7.8c-0.3-0.6-7.8-0.5-9.8,0.5c-2,1.1-2.7,3.5-1.7,5.5C1.6,19.1,4,19.9,6,18.9z
								"/>
						</g>
						<g id="Path_280">
							<path class="st26" d="M10.6,10.9c0.1-0.7,0.8-1.2,1.5-1.1c0.7,0.1,1.2,0.8,1.1,1.5c-0.1,0.7-0.8,1.2-1.5,1.1h0
								C11,12.3,10.5,11.6,10.6,10.9z"/>
						</g>
					</g>
					<g id="Path_281">
						<path class="st24" d="M27.4,39.6c-2.2,2.7-4.6,14.2-3.8,14.8c0.8,0.6,11.5-4.1,13.7-6.8c2.2-2.7,1.8-6.8-0.9-9
							S29.6,36.9,27.4,39.6L27.4,39.6L27.4,39.6z"/>
					</g>
				</g>
				<g id="Path_282">
					<path class="st24" d="M1031.5,648.3l-185.6-0.1c0.9-8.9,17.7-13.3,16.2-22.1c-2-11.2-84.7-15.4-51.5-29.7
						c32.6-14,101.7-11.5,104.2-11.4h0.1c12.1,0.9,105.3-5.6,116.5,11.2C1042.5,613.1,1031.5,648.3,1031.5,648.3z"/>
				</g>
				<g id="Path_283">
					<path class="st21" d="M1112.4,556.5c-17.6-0.9-44.2-2.2-67-3.7c-38.2-2.5-21.4-14.3-3.7-31.1c17.7-16.8-55-7.5-109.1-3.7
						s-135.2,1.8-106.3-21.6s238.8-50,238.8-50c0.9,0.8,1.7,1.7,2.5,2.5c1.4,1.4,2.9,2.9,4.3,4.4c5.9,6,11.3,12.5,16.3,19.2
						c1.1,1.5,2.1,3,3.2,4.5c1.2,1.8,2.4,3.7,3.5,5.5c3.7,6.2,6.9,12.7,9.5,19.4C1110.1,517.2,1113.2,534.9,1112.4,556.5z"/>
				</g>
				<g id="Path_284">
					<path class="st25" d="M100.6,428.5c-17.8,0-46.5,0.9-37.7,6.5s16.2,14-13.6,14.9c-29.5,0.9-46.4,2.4-46.8,2.5
						c-2.2-17.6-2.9-35.3-2.2-52.9c0,0,27.6-7.9,44.4,0c16.8,7.9,28.8,1.6,41.9,9.9c13,8.4,40.6,9.3,46.1,14
						C138.3,428,118.4,428.5,100.6,428.5z"/>
				</g>
				<g id="Group_222" transform="translate(730.858 583.647)">
					<g id="Path_285">
						<path class="st27" d="M56,36.5l1.3-22.2c0,0-11.2-9.3-12.8-10C42.9,3.7,18.8,0,18.8,0l1.1,20.9l7.6,15.2L56,36.5z"/>
					</g>
					<g id="Path_286">
						<path class="st28" d="M1,35.8c0,0-1.6-16.2-0.7-18S16.2-0.5,18.7,0c2.5,0.5,16.4,5.7,18.8,7.7s8.1,17.3,8,18.9
							c-0.1,1.6-0.6,9.8-0.6,9.8L1,35.8z"/>
					</g>
				</g>
				<g id="Group_223" transform="translate(707.681 604.71)">
					<g id="Path_287">
						<path class="st27" d="M41.7,20.6l0.2-9.5c0-1.5-0.7-2.9-1.9-3.8c-2.6-2-6.9-5.2-7.8-5.5c-0.7-0.3-8-1.1-13.4-1.8
							c-2.6-0.3-4.9,1.5-5.2,4.1c0,0.3,0,0.6,0,1l0.8,8.6c0,0.6,0.2,1.3,0.5,1.8l4.2,7.6c0.8,1.5,2.5,2.5,4.2,2.4l13.7-0.4
							C39.6,25.2,41.7,23.2,41.7,20.6z"/>
					</g>
					<g id="Path_288">
						<path class="st28" d="M5.4,26.1C3,26.2,0.9,24.4,0.7,22c-0.4-3.6-0.9-8.2-0.5-8.9c0.5-1.3,15.1-13.2,17-12.9
							c3.5,1,6.9,2.4,10.1,4.3c1.8,1.4,6.4,12.5,6.4,13.6l0,2.8c0,2.5-2,4.5-4.5,4.6L5.4,26.1z"/>
					</g>
				</g>
				<g id="Group_224" transform="translate(364.211 550.411)">
					<g id="Path_289">
						<path class="st27" d="M0.2,17.5L0,9.4c0-1.3,0.6-2.5,1.6-3.2c2.1-1.7,4.3-3.2,6.6-4.6C8.8,1.3,15,0.5,19.4,0
							c2.2-0.2,4.1,1.3,4.4,3.5c0,0.3,0,0.5,0,0.8l-0.7,7.3c0,0.5-0.2,1.1-0.5,1.6l-3.5,6.4c-0.7,1.3-2.1,2.1-3.6,2L4,21.3
							C1.9,21.3,0.2,19.6,0.2,17.5z"/>
					</g>
					<g id="Path_290">
						<path class="st28" d="M30.9,22.1c2,0.1,3.8-1.5,4-3.5c0.4-3,0.7-6.9,0.5-7.6C34.9,9.9,22.6-0.1,21,0.2c-3,0.8-5.9,2-8.5,3.6
							C10.9,5,7,14.4,7,15.3l0,2.3c0,2.1,1.7,3.8,3.8,3.9L30.9,22.1z"/>
					</g>
				</g>
				<g id="Group_225" transform="translate(331.3 564.32)">
					<g id="Path_291">
						<path class="st27" d="M0.1,9.5L0,5.1c0-0.7,0.3-1.3,0.9-1.8C2,2.5,3.2,1.6,4.5,0.8C4.8,0.7,8.1,0.3,10.6,0
							c1.2-0.1,2.2,0.7,2.4,1.9c0,0.2,0,0.3,0,0.5l-0.4,4c0,0.3-0.1,0.6-0.3,0.9l-1.9,3.5c-0.4,0.7-1.1,1.1-2,1.1l-6.3-0.2
							C1,11.6,0.1,10.6,0.1,9.5z"/>
					</g>
					<g id="Path_292">
						<path class="st28" d="M16.7,12c1.1,0,2.1-0.8,2.2-1.9c0.2-1.4,0.3-2.7,0.2-4.1c-0.3-0.6-7-6.1-7.8-5.9C9.7,0.5,8.2,1.2,6.7,2
							c-0.9,0.6-3,5.7-3,6.3l0,1.3c0,1.1,0.9,2.1,2.1,2.1L16.7,12z"/>
					</g>
				</g>
				<g id="Group_226" transform="translate(659.062 578.57)">
					<g id="Path_293">
						<path class="st27" d="M0.1,9.5L0,5.1c0-0.7,0.3-1.3,0.9-1.8C2,2.5,3.2,1.6,4.5,0.8C4.8,0.7,8.1,0.3,10.6,0
							c1.2-0.1,2.2,0.7,2.4,1.9c0,0.2,0,0.3,0,0.5l-0.4,4c0,0.3-0.1,0.6-0.3,0.9l-1.9,3.5c-0.4,0.7-1.1,1.1-2,1.1l-6.3-0.2
							C1,11.6,0.1,10.6,0.1,9.5z"/>
					</g>
					<g id="Path_294">
						<path class="st28" d="M16.8,12c1.1,0,2.1-0.8,2.2-1.9c0.2-1.4,0.3-2.7,0.2-4.1c-0.3-0.6-7-6.1-7.8-5.9C9.8,0.5,8.2,1.2,6.8,2
							c-0.9,0.6-3,5.7-3,6.3l0,1.3c0,1.1,0.9,2.1,2.1,2.1L16.8,12z"/>
					</g>
				</g>
				<g id="Group_227" transform="translate(243.103 624.836)">
					<g id="Path_295">
						<path class="st27" d="M0.1,9.5L0,5.1c0-0.7,0.3-1.3,0.9-1.8C2,2.5,3.2,1.6,4.5,0.8C4.8,0.7,8.1,0.3,10.6,0
							c1.2-0.1,2.2,0.7,2.4,1.9c0,0.2,0,0.3,0,0.5l-0.4,4c0,0.3-0.1,0.6-0.3,0.9l-1.9,3.5c-0.4,0.7-1.1,1.1-2,1.1l-6.3-0.2
							C1,11.6,0.1,10.6,0.1,9.5z"/>
					</g>
					<g id="Path_296">
						<path class="st28" d="M16.8,12c1.1,0,2.1-0.8,2.2-1.9c0.2-1.4,0.3-2.7,0.2-4.1c-0.3-0.6-7-6.1-7.8-5.9C9.8,0.5,8.2,1.2,6.8,2
							c-0.9,0.6-3,5.7-3,6.3l0,1.3c0,1.1,0.9,2.1,2.1,2.1L16.8,12z"/>
					</g>
				</g>
				<g id="Group_228" transform="translate(344.263 554.445)">
					<g id="Path_297">
						<path class="st27" d="M0,6.6l0-3c0-0.5,0.2-0.9,0.6-1.2c0.8-0.6,1.6-1.2,2.5-1.8C3.3,0.5,5.7,0.2,7.4,0C8.2-0.1,9,0.5,9.1,1.3
							c0,0.1,0,0.2,0,0.3L8.8,4.4c0,0.2-0.1,0.4-0.2,0.6L7.3,7.4C7,7.9,6.5,8.2,5.9,8.2L1.5,8.1C0.7,8,0.1,7.4,0,6.6z"/>
					</g>
					<g id="Path_298">
						<path class="st28" d="M11.7,8.3c0.8,0,1.5-0.5,1.5-1.3c0.1-0.9,0.2-1.9,0.2-2.8C13.2,3.7,8.5-0.1,7.9,0
							C6.8,0.3,5.7,0.8,4.6,1.4c-0.6,0.4-2.1,4-2.1,4.4v0.9c0,0.8,0.7,1.4,1.4,1.5L11.7,8.3z"/>
					</g>
				</g>
			</g>
		</g>
		<g class="st29">
			<path class="st30" d="M735.4,778v-47.9H615.3v-40.3l115.5-171.8h54v165.7h32.7v46.4h-32.7V778H735.4z M735.4,592.2h-3l-61.9,91.6
				h65V592.2z"/>
			<path class="st30" d="M960,784.1c-16.7,0-31.8-3.5-45.2-10.4c-13.4-7-24.9-16.5-34.4-28.7c-9.5-12.2-16.8-26.5-21.8-43.1
				c-5.1-16.6-7.6-34.5-7.6-53.8c0-19.3,2.5-37.2,7.6-53.8c5.1-16.6,12.3-31,21.8-43.1c9.5-12.2,21-21.7,34.4-28.7
				c13.4-7,28.5-10.5,45.2-10.5c16.7,0,31.8,3.5,45.2,10.5c13.4,7,24.9,16.5,34.4,28.7c9.5,12.2,16.8,26.5,21.9,43.1
				c5.1,16.6,7.6,34.5,7.6,53.8c0,19.3-2.5,37.2-7.6,53.8c-5.1,16.6-12.4,31-21.9,43.1c-9.5,12.2-21,21.7-34.4,28.7
				C991.8,780.6,976.7,784.1,960,784.1z M960,737c9.1,0,17.3-2.2,24.7-6.7c7.3-4.4,13.6-10.6,18.8-18.6c5.2-8,9.1-17.4,11.8-28.3
				c2.7-10.9,4-22.7,4-35.3c0-12.9-1.3-24.8-4-35.5c-2.7-10.8-6.6-20.1-11.8-28.1c-5.2-8-11.5-14.2-18.8-18.6
				c-7.4-4.4-15.6-6.6-24.7-6.6c-9.4,0-17.7,2.2-25.1,6.6c-7.4,4.4-13.6,10.6-18.6,18.6c-5.1,8-8.9,17.4-11.6,28.1
				c-2.7,10.8-4,22.6-4,35.5c0,12.7,1.3,24.4,4,35.3c2.7,10.9,6.5,20.3,11.6,28.3c5.1,8,11.3,14.2,18.6,18.6
				C942.3,734.7,950.6,737,960,737z"/>
			<path class="st30" d="M1221.1,778v-47.9H1101v-40.3l115.5-171.8h54v165.7h32.7v46.4h-32.7V778H1221.1z M1221.1,592.2h-3
				l-61.9,91.6h65V592.2z"/>
		</g>
		<g class="st29">
			<path class="st30" d="M839.2,445.4c-4.6,0-8.8-0.8-12.8-2.5c-3.9-1.7-7.3-3.9-10.2-6.8c-2.9-2.9-5.1-6.3-6.8-10.2
				c-1.6-3.9-2.5-8.1-2.5-12.6s0.8-8.7,2.5-12.6c1.6-3.9,3.9-7.3,6.8-10.2c2.9-2.9,6.3-5.2,10.2-6.8c3.9-1.7,8.2-2.5,12.8-2.5
				c4.6,0,8.8,0.8,12.8,2.5c3.9,1.7,7.3,3.9,10.2,6.8c2.9,2.9,5.1,6.3,6.8,10.2c1.6,3.9,2.5,8.1,2.5,12.6s-0.8,8.7-2.5,12.6
				c-1.6,3.9-3.9,7.3-6.8,10.2c-2.9,2.9-6.3,5.2-10.2,6.8C848,444.5,843.8,445.4,839.2,445.4z M839.2,434.4c2.9,0,5.5-0.5,8-1.5
				c2.5-1,4.7-2.5,6.5-4.3c1.9-1.8,3.3-4.1,4.4-6.7c1.1-2.6,1.6-5.5,1.6-8.6c0-3.2-0.5-6-1.6-8.6c-1.1-2.6-2.5-4.8-4.4-6.7
				c-1.9-1.8-4-3.3-6.5-4.3c-2.5-1-5.2-1.5-8-1.5c-2.9,0-5.5,0.5-8,1.5c-2.5,1-4.7,2.5-6.5,4.3c-1.9,1.8-3.3,4.1-4.4,6.7
				c-1.1,2.6-1.6,5.5-1.6,8.6c0,3.2,0.5,6,1.6,8.6c1.1,2.6,2.5,4.8,4.4,6.7c1.9,1.8,4,3.3,6.5,4.3
				C833.7,433.9,836.3,434.4,839.2,434.4z"/>
			<path class="st30" d="M909,445.4c-4.6,0-8.8-0.8-12.8-2.5c-3.9-1.7-7.3-3.9-10.2-6.8c-2.9-2.9-5.1-6.3-6.8-10.2
				c-1.6-3.9-2.5-8.1-2.5-12.6s0.8-8.7,2.5-12.6c1.6-3.9,3.9-7.3,6.8-10.2c2.9-2.9,6.3-5.2,10.2-6.8c3.9-1.7,8.2-2.5,12.8-2.5
				c4.6,0,8.8,0.8,12.8,2.5c3.9,1.7,7.3,3.9,10.2,6.8c2.9,2.9,5.1,6.3,6.8,10.2c1.6,3.9,2.5,8.1,2.5,12.6s-0.8,8.7-2.5,12.6
				c-1.6,3.9-3.9,7.3-6.8,10.2c-2.9,2.9-6.3,5.2-10.2,6.8C917.9,444.5,913.6,445.4,909,445.4z M909,434.4c2.9,0,5.5-0.5,8-1.5
				c2.5-1,4.7-2.5,6.5-4.3c1.9-1.8,3.3-4.1,4.4-6.7c1.1-2.6,1.6-5.5,1.6-8.6c0-3.2-0.5-6-1.6-8.6c-1.1-2.6-2.5-4.8-4.4-6.7
				s-4-3.3-6.5-4.3c-2.5-1-5.2-1.5-8-1.5c-2.9,0-5.5,0.5-8,1.5c-2.5,1-4.7,2.5-6.5,4.3c-1.9,1.8-3.3,4.1-4.4,6.7
				c-1.1,2.6-1.6,5.5-1.6,8.6c0,3.2,0.5,6,1.6,8.6c1.1,2.6,2.5,4.8,4.4,6.7c1.9,1.8,4,3.3,6.5,4.3
				C903.5,433.9,906.2,434.4,909,434.4z"/>
			<path class="st30" d="M950.6,444v-61.6h21.7c2.9,0,5.7,0.5,8.2,1.4c2.5,0.9,4.8,2.3,6.7,4c1.9,1.7,3.4,3.8,4.5,6.1
				c1.1,2.4,1.6,5,1.6,7.9c0,2.9-0.5,5.6-1.6,8c-1.1,2.4-2.6,4.4-4.5,6.1c-1.9,1.7-4.1,3.1-6.7,4c-2.6,0.9-5.3,1.4-8.2,1.4h-10.1
				V444H950.6z M972.4,410.4c3,0,5.3-0.9,6.9-2.6s2.3-3.7,2.3-5.9c0-1.1-0.2-2.2-0.6-3.2c-0.4-1-0.9-1.9-1.7-2.7
				c-0.8-0.8-1.7-1.4-2.9-1.8c-1.1-0.5-2.5-0.7-4-0.7h-10.2v16.9H972.4z"/>
			<path class="st30" d="M1020.3,445.4c-2.6,0-5.2-0.4-7.6-1.1s-4.6-1.9-6.6-3.4c-2-1.5-3.8-3.3-5.2-5.5c-1.5-2.2-2.7-4.7-3.5-7.5
				l10.9-4.3c0.8,3.1,2.2,5.7,4.2,7.7c2,2,4.6,3.1,7.9,3.1c1.2,0,2.4-0.2,3.5-0.5c1.1-0.3,2.1-0.8,3-1.4c0.9-0.6,1.6-1.4,2.1-2.3
				c0.5-0.9,0.8-2,0.8-3.2c0-1.1-0.2-2.2-0.6-3.1c-0.4-0.9-1.1-1.8-2-2.6c-0.9-0.8-2.2-1.6-3.7-2.3c-1.5-0.7-3.4-1.5-5.6-2.3
				l-3.8-1.4c-1.7-0.6-3.3-1.3-5-2.3c-1.7-1-3.2-2.2-4.6-3.5s-2.5-3-3.4-4.9c-0.9-1.9-1.3-4-1.3-6.3c0-2.4,0.5-4.7,1.4-6.8
				c0.9-2.1,2.3-3.9,4-5.5c1.7-1.6,3.8-2.8,6.3-3.7c2.4-0.9,5.1-1.3,8.1-1.3c3.1,0,5.8,0.4,8,1.2c2.3,0.8,4.2,1.9,5.8,3.2
				c1.6,1.3,2.9,2.7,3.8,4.3c1,1.5,1.7,3,2.2,4.4l-10.2,4.3c-0.6-1.7-1.6-3.3-3.1-4.6c-1.5-1.4-3.6-2.1-6.2-2.1
				c-2.5,0-4.6,0.6-6.3,1.8c-1.7,1.2-2.5,2.7-2.5,4.6c0,1.8,0.8,3.4,2.4,4.7c1.6,1.3,4.2,2.5,7.7,3.7l3.9,1.3c2.5,0.9,4.7,1.8,6.8,3
				c2,1.1,3.8,2.5,5.2,4s2.6,3.3,3.4,5.3c0.8,2,1.2,4.3,1.2,6.8c0,3.2-0.6,6-1.9,8.3c-1.3,2.3-2.9,4.2-4.9,5.7
				c-2,1.5-4.3,2.6-6.8,3.4C1025.2,445,1022.7,445.4,1020.3,445.4z"/>
			<path class="st30" d="M1056.4,444c-2.1,0-3.8-0.7-5.3-2.1s-2.2-3.1-2.2-5.1c0-2,0.7-3.7,2.2-5.1c1.5-1.4,3.2-2.1,5.3-2.1
				c2.1,0,3.8,0.7,5.2,2.1c1.4,1.4,2.1,3.1,2.1,5.1c0,2-0.7,3.7-2.1,5.1C1060.2,443.3,1058.4,444,1056.4,444z"/>
			<path class="st30" d="M1079.5,444c-2.1,0-3.8-0.7-5.3-2.1s-2.2-3.1-2.2-5.1c0-2,0.7-3.7,2.2-5.1c1.5-1.4,3.2-2.1,5.3-2.1
				c2.1,0,3.8,0.7,5.2,2.1c1.4,1.4,2.1,3.1,2.1,5.1c0,2-0.7,3.7-2.1,5.1C1083.3,443.3,1081.5,444,1079.5,444z"/>
			<path class="st30" d="M1102.6,444c-2.1,0-3.8-0.7-5.3-2.2s-2.2-3.2-2.2-5.3c0-2.1,0.7-3.8,2.2-5.2c1.5-1.4,3.2-2.2,5.3-2.2
				c2.1,0,3.8,0.7,5.2,2.2c1.4,1.4,2.1,3.2,2.1,5.2c0,2.1-0.7,3.8-2.1,5.3C1106.4,443.3,1104.7,444,1102.6,444z M1096.8,400.1v-17.7
				h11.6v17.7l-1.2,22.7h-9.2L1096.8,400.1z"/>
		</g>
		<g class="st29">
			<path class="st30" d="M695.4,963v-44.4H711c2.1,0,4.1,0.3,5.9,1c1.8,0.7,3.4,1.6,4.8,2.9c1.4,1.2,2.4,2.7,3.2,4.4
				c0.8,1.7,1.2,3.6,1.2,5.7c0,2.1-0.4,4-1.2,5.7c-0.8,1.7-1.9,3.2-3.2,4.4c-1.4,1.2-3,2.2-4.8,2.9c-1.8,0.7-3.8,1-5.9,1h-7.3V963
				H695.4z M711.1,938.8c2.2,0,3.8-0.6,5-1.9s1.7-2.7,1.7-4.3c0-0.8-0.1-1.6-0.4-2.3s-0.7-1.4-1.2-2c-0.6-0.6-1.3-1-2.1-1.3
				c-0.8-0.3-1.8-0.5-2.9-0.5h-7.4v12.2H711.1z"/>
			<path class="st30" d="M740.7,918.6h9.5l16.7,44.4h-9.2l-3.7-10.6h-17.1l-3.7,10.6H724L740.7,918.6z M751.3,944.7l-4-11.1
				l-1.6-5.4h-0.5l-1.6,5.4l-4,11.1H751.3z"/>
			<path class="st30" d="M792,938.6h21.8c0.1,0.5,0.2,1.1,0.3,1.8c0.1,0.7,0.1,1.4,0.1,2.1c0,2.9-0.4,5.5-1.3,8.1
				c-0.9,2.5-2.2,4.8-4.1,6.8c-2,2.1-4.4,3.7-7.1,4.9c-2.8,1.2-5.9,1.7-9.5,1.7c-3.2,0-6.3-0.6-9.1-1.7c-2.9-1.2-5.3-2.8-7.4-4.8
				c-2.1-2.1-3.8-4.5-5-7.3c-1.2-2.8-1.9-5.9-1.9-9.3s0.6-6.4,1.9-9.3c1.2-2.8,2.9-5.3,5-7.3c2.1-2.1,4.6-3.7,7.4-4.8
				c2.9-1.2,5.9-1.7,9.1-1.7c3.6,0,6.8,0.6,9.6,1.9s5.3,3,7.3,5.1l-5.8,5.6c-1.4-1.5-3.1-2.7-4.8-3.5s-3.9-1.2-6.4-1.2
				c-2,0-3.9,0.4-5.8,1.1c-1.8,0.7-3.4,1.7-4.8,3.1c-1.4,1.3-2.4,2.9-3.3,4.8c-0.8,1.9-1.2,4-1.2,6.3s0.4,4.4,1.2,6.3
				c0.8,1.9,1.9,3.5,3.3,4.8c1.4,1.3,3,2.3,4.8,3.1c1.8,0.7,3.8,1.1,5.8,1.1c2.4,0,4.3-0.3,6-1s3-1.6,4.2-2.6
				c0.8-0.7,1.5-1.7,2.1-2.8c0.6-1.1,1.1-2.4,1.4-3.8H792V938.6z"/>
			<path class="st30" d="M829.5,926.5v10.3h17.8v7.9h-17.8v10.3h19.8v7.9h-28.1v-44.4h28.1v7.9H829.5z"/>
			<path class="st30" d="M870.6,918.6h9.7l17.9,29.8h0.5l-0.5-8.6v-21.2h8.3V963h-8.8l-18.8-31.4h-0.5l0.5,8.6V963h-8.2V918.6z"/>
			<path class="st30" d="M935.8,964c-3.3,0-6.4-0.6-9.2-1.8c-2.8-1.2-5.3-2.8-7.3-4.9c-2.1-2.1-3.7-4.5-4.9-7.4
				c-1.2-2.8-1.8-5.9-1.8-9.1s0.6-6.3,1.8-9.1c1.2-2.8,2.8-5.3,4.9-7.4c2.1-2.1,4.5-3.7,7.3-4.9c2.8-1.2,5.9-1.8,9.2-1.8
				c3.3,0,6.4,0.6,9.2,1.8c2.8,1.2,5.3,2.8,7.3,4.9c2.1,2.1,3.7,4.5,4.9,7.4c1.2,2.8,1.8,5.9,1.8,9.1s-0.6,6.3-1.8,9.1
				c-1.2,2.8-2.8,5.3-4.9,7.4c-2.1,2.1-4.5,3.7-7.3,4.9C942.2,963.4,939.1,964,935.8,964z M935.8,956.1c2.1,0,4-0.4,5.8-1.1
				c1.8-0.7,3.4-1.8,4.7-3.1c1.3-1.3,2.4-2.9,3.2-4.8c0.8-1.9,1.1-4,1.1-6.2s-0.4-4.3-1.1-6.2c-0.8-1.9-1.8-3.5-3.2-4.8
				c-1.3-1.3-2.9-2.4-4.7-3.1s-3.7-1.1-5.8-1.1c-2.1,0-4,0.4-5.8,1.1c-1.8,0.7-3.4,1.8-4.7,3.1c-1.3,1.3-2.4,2.9-3.2,4.8
				s-1.1,4-1.1,6.2s0.4,4.3,1.1,6.2s1.8,3.5,3.2,4.8c1.3,1.3,2.9,2.4,4.7,3.1C931.8,955.7,933.8,956.1,935.8,956.1z"/>
			<path class="st30" d="M973.3,963v-36.5h-12.4v-7.9h33.2v7.9h-12.4V963H973.3z"/>
			<path class="st30" d="M1013.7,918.6h28.1v7.9h-19.8v10.8h17.8v7.9h-17.8V963h-8.4V918.6z"/>
			<path class="st30" d="M1068.7,964c-3.3,0-6.4-0.6-9.2-1.8c-2.8-1.2-5.3-2.8-7.3-4.9c-2.1-2.1-3.7-4.5-4.9-7.4
				c-1.2-2.8-1.8-5.9-1.8-9.1s0.6-6.3,1.8-9.1c1.2-2.8,2.8-5.3,4.9-7.4c2.1-2.1,4.5-3.7,7.3-4.9c2.8-1.2,5.9-1.8,9.2-1.8
				c3.3,0,6.4,0.6,9.2,1.8c2.8,1.2,5.3,2.8,7.3,4.9c2.1,2.1,3.7,4.5,4.9,7.4c1.2,2.8,1.8,5.9,1.8,9.1s-0.6,6.3-1.8,9.1
				c-1.2,2.8-2.8,5.3-4.9,7.4c-2.1,2.1-4.5,3.7-7.3,4.9C1075.1,963.4,1072,964,1068.7,964z M1068.7,956.1c2.1,0,4-0.4,5.8-1.1
				c1.8-0.7,3.4-1.8,4.7-3.1c1.3-1.3,2.4-2.9,3.2-4.8c0.8-1.9,1.1-4,1.1-6.2s-0.4-4.3-1.1-6.2c-0.8-1.9-1.8-3.5-3.2-4.8
				c-1.3-1.3-2.9-2.4-4.7-3.1s-3.7-1.1-5.8-1.1c-2.1,0-4,0.4-5.8,1.1c-1.8,0.7-3.4,1.8-4.7,3.1c-1.3,1.3-2.4,2.9-3.2,4.8
				s-1.1,4-1.1,6.2s0.4,4.3,1.1,6.2s1.8,3.5,3.2,4.8c1.3,1.3,2.9,2.4,4.7,3.1C1064.7,955.7,1066.6,956.1,1068.7,956.1z"/>
			<path class="st30" d="M1114.9,964c-2.6,0-5-0.4-7.1-1.3c-2.1-0.8-3.9-2.1-5.4-3.7c-1.5-1.6-2.6-3.6-3.5-5.9
				c-0.8-2.3-1.2-4.9-1.2-7.8v-26.7h8.4v27.2c0,1.5,0.2,2.9,0.6,4.1s0.9,2.3,1.7,3.2c0.7,0.9,1.7,1.6,2.8,2.1
				c1.1,0.5,2.4,0.8,3.8,0.8c1.5,0,2.8-0.3,3.9-0.8c1.1-0.5,2-1.2,2.8-2.1c0.7-0.9,1.3-2,1.7-3.2s0.6-2.6,0.6-4.1v-27.2h8.4v26.7
				c0,2.8-0.4,5.3-1.2,7.6c-0.8,2.3-2,4.3-3.5,5.9c-1.5,1.6-3.3,2.9-5.5,3.8C1119.9,963.5,1117.5,964,1114.9,964z"/>
			<path class="st30" d="M1140.1,918.6h9.7l17.9,29.8h0.5l-0.5-8.6v-21.2h8.3V963h-8.8l-18.8-31.4h-0.5l0.5,8.6V963h-8.2V918.6z"/>
			<path class="st30" d="M1184.9,918.6h15c3.5,0,6.7,0.5,9.5,1.6c2.8,1.1,5.2,2.6,7.2,4.6c2,2,3.5,4.3,4.6,7s1.6,5.7,1.6,9
				c0,3.3-0.5,6.3-1.6,9.1c-1.1,2.7-2.6,5.1-4.6,7c-2,1.9-4.4,3.5-7.2,4.5c-2.8,1.1-6,1.6-9.5,1.6h-15V918.6z M1199.6,955.1
				c2.4,0,4.6-0.3,6.4-1s3.4-1.6,4.7-2.9c1.2-1.2,2.2-2.7,2.8-4.5c0.6-1.8,0.9-3.7,0.9-5.9c0-2.1-0.3-4.1-0.9-5.9
				c-0.6-1.8-1.6-3.3-2.8-4.5c-1.2-1.2-2.8-2.2-4.7-2.9c-1.9-0.7-4-1-6.4-1h-6.3v28.5H1199.6z"/>
		</g>
	</g>
</g>
</svg>
